<svg width="1380" height="954" viewBox="0 0 1380 954" fill="none" xmlns="http://www.w3.org/2000/svg">
<path fill-rule="evenodd" clip-rule="evenodd" d="M-52.7687 3.09766L-47.75 5.15352C-34.4529 10.6005 -19.5471 10.6005 -6.25 5.15353C7.04713 -0.293489 21.9529 -0.293489 35.25 5.15353C48.5471 10.6005 63.4529 10.6005 76.75 5.15353C90.0471 -0.293489 104.953 -0.293489 118.25 5.15353C131.547 10.6005 146.453 10.6005 159.75 5.15353C173.047 -0.293489 187.953 -0.293489 201.25 5.15353C214.547 10.6005 229.453 10.6005 242.75 5.15353C256.047 -0.293489 270.953 -0.293489 284.25 5.15353C297.547 10.6005 312.453 10.6005 325.75 5.15353C339.047 -0.293489 353.953 -0.293489 367.25 5.15353C380.547 10.6005 395.453 10.6005 408.75 5.15353C422.047 -0.293489 436.953 -0.293489 450.25 5.15353C463.547 10.6005 478.453 10.6005 491.75 5.15353C505.047 -0.293489 519.953 -0.293489 533.25 5.15353C546.547 10.6005 561.453 10.6005 574.75 5.15353C588.047 -0.293489 602.953 -0.293489 616.25 5.15353C629.547 10.6005 644.453 10.6005 657.75 5.15353C671.047 -0.293489 685.953 -0.293489 699.25 5.15353C712.547 10.6005 727.453 10.6005 740.75 5.15353C754.047 -0.293489 768.953 -0.293489 782.25 5.15353C795.547 10.6005 810.453 10.6005 823.75 5.15353C837.047 -0.293489 851.953 -0.293489 865.25 5.15353C878.547 10.6005 893.453 10.6005 906.75 5.15353C920.047 -0.293489 934.953 -0.293489 948.25 5.15353C961.547 10.6005 976.453 10.6005 989.75 5.15353C1003.05 -0.293489 1017.95 -0.293489 1031.25 5.15353C1044.55 10.6005 1059.45 10.6005 1072.75 5.15353C1086.05 -0.293489 1100.95 -0.293489 1114.25 5.15353C1127.55 10.6005 1142.45 10.6005 1155.75 5.15353C1169.05 -0.293489 1183.95 -0.293489 1197.25 5.15353C1210.55 10.6005 1225.45 10.6005 1238.75 5.15353C1252.05 -0.293489 1266.95 -0.293489 1280.25 5.15353C1293.55 10.6005 1308.45 10.6005 1321.75 5.15353C1335.05 -0.293489 1349.95 -0.293489 1363.25 5.15353C1376.55 10.6005 1391.45 10.6005 1404.75 5.15353C1418.05 -0.293489 1432.95 -0.293489 1446.25 5.15353C1459.55 10.6005 1474.45 10.6005 1487.75 5.15353L1492.77 3.09767C1502.85 -1.0319 1514.15 -1.0319 1524.23 3.09766C1539.82 9.48277 1550 24.6562 1550 41.5005V261V518.654V912.153C1550 928.997 1539.82 944.171 1524.23 950.556C1514.15 954.686 1502.85 954.686 1492.77 950.556L1487.75 948.5C1474.45 943.053 1459.55 943.053 1446.25 948.5C1432.95 953.947 1418.05 953.947 1404.75 948.5C1391.45 943.053 1376.55 943.053 1363.25 948.5C1349.95 953.947 1335.05 953.947 1321.75 948.5C1308.45 943.053 1293.55 943.053 1280.25 948.5C1266.95 953.947 1252.05 953.947 1238.75 948.5C1225.45 943.053 1210.55 943.053 1197.25 948.5C1183.95 953.947 1169.05 953.947 1155.75 948.5C1142.45 943.053 1127.55 943.053 1114.25 948.5C1100.95 953.947 1086.05 953.947 1072.75 948.5C1059.45 943.053 1044.55 943.053 1031.25 948.5C1017.95 953.947 1003.05 953.947 989.75 948.5C976.453 943.053 961.547 943.053 948.25 948.5C934.953 953.947 920.047 953.947 906.75 948.5C893.453 943.053 878.547 943.053 865.25 948.5C851.953 953.947 837.047 953.947 823.75 948.5C810.453 943.053 795.547 943.053 782.25 948.5C768.953 953.947 754.047 953.947 740.75 948.5C727.453 943.053 712.547 943.053 699.25 948.5C685.953 953.947 671.047 953.947 657.75 948.5C644.453 943.053 629.547 943.053 616.25 948.5C602.953 953.947 588.047 953.947 574.75 948.5C561.453 943.053 546.547 943.053 533.25 948.5C519.953 953.947 505.047 953.947 491.75 948.5C478.453 943.053 463.547 943.053 450.25 948.5C436.953 953.947 422.047 953.947 408.75 948.5C395.453 943.053 380.547 943.053 367.25 948.5C353.953 953.947 339.047 953.947 325.75 948.5C312.453 943.053 297.547 943.053 284.25 948.5C270.953 953.947 256.047 953.947 242.75 948.5C229.453 943.053 214.547 943.053 201.25 948.5C187.953 953.947 173.047 953.947 159.75 948.5C146.453 943.053 131.547 943.053 118.25 948.5C104.953 953.947 90.0471 953.947 76.75 948.5C63.4529 943.053 48.5471 943.053 35.25 948.5C21.9529 953.947 7.04713 953.947 -6.25 948.5C-19.5471 943.053 -34.4529 943.053 -47.75 948.5L-52.7687 950.556C-62.8497 954.686 -74.1503 954.686 -84.2313 950.556C-99.8185 944.171 -110 928.997 -110 912.153V518.654V261V41.5005C-110 24.6562 -99.8185 9.48277 -84.2313 3.09766C-74.1503 -1.0319 -62.8497 -1.0319 -52.7687 3.09766Z" fill="#CBECF7"/>
</svg>
